<?xml version="1.0" encoding="UTF-8" standalone="no"?>
<!-- Created with Inkscape (http://www.inkscape.org/) -->

<svg
   xmlns:dc="http://purl.org/dc/elements/1.1/"
   xmlns:cc="http://creativecommons.org/ns#"
   xmlns:rdf="http://www.w3.org/1999/02/22-rdf-syntax-ns#"
   xmlns:svg="http://www.w3.org/2000/svg"
   xmlns="http://www.w3.org/2000/svg"
   xmlns:sodipodi="http://sodipodi.sourceforge.net/DTD/sodipodi-0.dtd"
   xmlns:inkscape="http://www.inkscape.org/namespaces/inkscape"
   width="8mm"
   height="8mm"
   viewBox="0 0 30.236222 30.236221"
   version="1.1"
   id="SVGRoot"
   sodipodi:docname="Multimeter.svg"
   inkscape:version="0.92.2 (5c3e80d, 2017-08-06)"
   inkscape:export-filename="G:\David Ledger\Documents\Visual Studio 2017\Projects\App 112GW\121GW.Core\Image\Icons\Multimeter@x3.png"
   inkscape:export-xdpi="285.75"
   inkscape:export-ydpi="285.75">
  <sodipodi:namedview
     id="base"
     pagecolor="#ffffff"
     bordercolor="#666666"
     borderopacity="1.0"
     inkscape:pageopacity="0.0"
     inkscape:pageshadow="2"
     inkscape:zoom="22.627417"
     inkscape:cx="13.596795"
     inkscape:cy="12.051177"
     inkscape:document-units="px"
     inkscape:current-layer="layer1"
     showgrid="false"
     inkscape:window-width="1402"
     inkscape:window-height="1008"
     inkscape:window-x="1913"
     inkscape:window-y="0"
     inkscape:window-maximized="0"
     inkscape:grid-bbox="true"
     units="mm"
     inkscape:object-paths="true"
     inkscape:snap-intersection-paths="true"
     inkscape:snap-smooth-nodes="true"
     inkscape:snap-midpoints="true"
     inkscape:snap-object-midpoints="true"
     inkscape:snap-bbox="true"
     inkscape:snap-center="true"
     inkscape:snap-global="true"
     inkscape:snap-bbox-midpoints="true">
    <inkscape:grid
       type="xygrid"
       id="grid1925"
       spacingx="0.9448819"
       spacingy="0.9448819" />
  </sodipodi:namedview>
  <defs
     id="defs1366" />
  <metadata
     id="metadata1369">
    <rdf:RDF>
      <cc:Work
         rdf:about="">
        <dc:format>image/svg+xml</dc:format>
        <dc:type
           rdf:resource="http://purl.org/dc/dcmitype/StillImage" />
        <dc:title />
      </cc:Work>
    </rdf:RDF>
  </metadata>
  <g
     id="layer1"
     inkscape:groupmode="layer"
     inkscape:label="Layer 1"
     transform="translate(0,14.236223)">
    <path
       style="fill:#333333;fill-opacity:1;fill-rule:evenodd;stroke:none;stroke-width:0.37795278;stroke-linecap:round;stroke-linejoin:round;stroke-miterlimit:4;stroke-dasharray:none;stroke-dashoffset:0;stroke-opacity:1;paint-order:markers fill stroke"
       d="M 8.9238281 1.4726562 C 7.9433846 1.4726562 7.1542969 2.2596473 7.1542969 3.2382812 L 7.1542969 27.085938 C 7.1542969 28.06457 7.9433686 28.853516 8.9238281 28.853516 L 21.3125 28.853516 C 22.292935 28.853516 23.082031 28.064573 23.082031 27.085938 L 23.082031 3.2382812 C 23.082031 2.2596502 22.292959 1.4726564 21.3125 1.4726562 L 8.9238281 1.4726562 z M 8.9238281 3.2382812 L 21.3125 3.2382812 L 21.3125 11.1875 L 8.9238281 11.1875 L 8.9238281 3.2382812 z M 9.8085938 12.070312 L 11.740234 12.070312 L 11.740234 12.955078 L 9.8085938 12.955078 L 9.8085938 12.070312 z M 12.705078 12.070312 L 14.634766 12.070312 L 14.634766 12.955078 L 12.705078 12.955078 L 12.705078 12.070312 z M 15.601562 12.070312 L 17.53125 12.070312 L 17.53125 12.955078 L 15.601562 12.955078 L 15.601562 12.070312 z M 18.496094 12.070312 L 20.427734 12.070312 L 20.427734 12.955078 L 18.496094 12.955078 L 18.496094 12.070312 z M 9.8085938 13.837891 L 11.740234 13.837891 L 11.740234 14.720703 L 9.8085938 14.720703 L 9.8085938 13.837891 z M 12.705078 13.837891 L 14.634766 13.837891 L 14.634766 14.720703 L 12.705078 14.720703 L 12.705078 13.837891 z M 15.601562 13.837891 L 17.53125 13.837891 L 17.53125 14.720703 L 15.601562 14.720703 L 15.601562 13.837891 z M 18.496094 13.837891 L 20.427734 13.837891 L 20.427734 14.720703 L 18.496094 14.720703 L 18.496094 13.837891 z M 15.117188 15.603516 A 3.9820118 3.9745975 0 0 1 19.099609 19.578125 A 3.9820118 3.9745975 0 0 1 15.117188 23.552734 A 3.9820118 3.9745975 0 0 1 11.136719 19.578125 A 3.9820118 3.9745975 0 0 1 15.117188 15.603516 z M 20.427734 23.552734 A 0.88489172 0.8832441 0 0 1 21.3125 24.4375 A 0.88489172 0.8832441 0 0 1 20.427734 25.320312 A 0.88489172 0.8832441 0 0 1 19.542969 24.4375 A 0.88489172 0.8832441 0 0 1 20.427734 23.552734 z M 10.693359 25.320312 A 0.88489172 0.8832441 0 0 1 11.578125 26.203125 A 0.88489172 0.8832441 0 0 1 10.693359 27.085938 A 0.88489172 0.8832441 0 0 1 9.8085938 26.203125 A 0.88489172 0.8832441 0 0 1 10.693359 25.320312 z M 14.232422 25.320312 A 0.88489172 0.8832441 0 0 1 15.117188 26.203125 A 0.88489172 0.8832441 0 0 1 14.232422 27.085938 A 0.88489172 0.8832441 0 0 1 13.347656 26.203125 A 0.88489172 0.8832441 0 0 1 14.232422 25.320312 z M 17.773438 25.320312 A 0.88489172 0.8832441 0 0 1 18.658203 26.203125 A 0.88489172 0.8832441 0 0 1 17.773438 27.085938 A 0.88489172 0.8832441 0 0 1 16.888672 26.203125 A 0.88489172 0.8832441 0 0 1 17.773438 25.320312 z "
       transform="translate(0,-14.236223)"
       id="rect4552" />
  </g>
</svg>
